<mxfile host="app.diagrams.net" modified="2023-04-03T22:33:52.614Z" agent="Mozilla/5.0 (Windows NT 10.0; Win64; x64) AppleWebKit/537.36 (KHTML, like Gecko) Chrome/110.0.0.0 Safari/537.36 OPR/96.0.0.0" etag="R5TYmRipmD1ZsKerK7gf" version="21.1.4" type="device">
  <diagram name="PÃ¡gina-1" id="QE4ZU7I0OKn6VSsImvtq">
    <mxGraphModel dx="961" dy="523" grid="1" gridSize="10" guides="1" tooltips="1" connect="1" arrows="1" fold="1" page="1" pageScale="1" pageWidth="827" pageHeight="1169" math="0" shadow="0">
      <root>
        <mxCell id="0" />
        <mxCell id="1" parent="0" />
        <mxCell id="DbdM4YEgdtRYltPSw6OL-1" value="Dentista" style="whiteSpace=wrap;html=1;align=center;" vertex="1" parent="1">
          <mxGeometry x="450" y="380" width="100" height="40" as="geometry" />
        </mxCell>
        <mxCell id="DbdM4YEgdtRYltPSw6OL-2" value="Possui" style="shape=rhombus;perimeter=rhombusPerimeter;whiteSpace=wrap;html=1;align=center;" vertex="1" parent="1">
          <mxGeometry x="440" y="240" width="120" height="60" as="geometry" />
        </mxCell>
        <mxCell id="DbdM4YEgdtRYltPSw6OL-3" value="Instituicao" style="whiteSpace=wrap;html=1;align=center;" vertex="1" parent="1">
          <mxGeometry x="450" y="120" width="100" height="40" as="geometry" />
        </mxCell>
        <mxCell id="DbdM4YEgdtRYltPSw6OL-4" value="Paciente" style="whiteSpace=wrap;html=1;align=center;" vertex="1" parent="1">
          <mxGeometry x="230" y="260" width="100" height="40" as="geometry" />
        </mxCell>
        <mxCell id="DbdM4YEgdtRYltPSw6OL-6" value="" style="endArrow=none;html=1;rounded=0;" edge="1" parent="1" source="DbdM4YEgdtRYltPSw6OL-1" target="DbdM4YEgdtRYltPSw6OL-2">
          <mxGeometry relative="1" as="geometry">
            <mxPoint x="330" y="390" as="sourcePoint" />
            <mxPoint x="490" y="390" as="targetPoint" />
          </mxGeometry>
        </mxCell>
        <mxCell id="DbdM4YEgdtRYltPSw6OL-13" value="n" style="edgeLabel;html=1;align=center;verticalAlign=middle;resizable=0;points=[];" vertex="1" connectable="0" parent="DbdM4YEgdtRYltPSw6OL-6">
          <mxGeometry x="-0.585" relative="1" as="geometry">
            <mxPoint x="10" y="7" as="offset" />
          </mxGeometry>
        </mxCell>
        <mxCell id="DbdM4YEgdtRYltPSw6OL-7" value="" style="endArrow=none;html=1;rounded=0;" edge="1" parent="1" source="DbdM4YEgdtRYltPSw6OL-3" target="DbdM4YEgdtRYltPSw6OL-2">
          <mxGeometry relative="1" as="geometry">
            <mxPoint x="330" y="390" as="sourcePoint" />
            <mxPoint x="490" y="390" as="targetPoint" />
          </mxGeometry>
        </mxCell>
        <mxCell id="DbdM4YEgdtRYltPSw6OL-14" value="1" style="edgeLabel;html=1;align=center;verticalAlign=middle;resizable=0;points=[];" vertex="1" connectable="0" parent="DbdM4YEgdtRYltPSw6OL-7">
          <mxGeometry x="-0.885" y="1" relative="1" as="geometry">
            <mxPoint x="9" y="5" as="offset" />
          </mxGeometry>
        </mxCell>
        <mxCell id="DbdM4YEgdtRYltPSw6OL-8" value="Consulta" style="shape=rhombus;perimeter=rhombusPerimeter;whiteSpace=wrap;html=1;align=center;" vertex="1" parent="1">
          <mxGeometry x="220" y="370" width="120" height="60" as="geometry" />
        </mxCell>
        <mxCell id="DbdM4YEgdtRYltPSw6OL-9" value="" style="endArrow=none;html=1;rounded=0;" edge="1" parent="1" source="DbdM4YEgdtRYltPSw6OL-8" target="DbdM4YEgdtRYltPSw6OL-1">
          <mxGeometry relative="1" as="geometry">
            <mxPoint x="330" y="390" as="sourcePoint" />
            <mxPoint x="490" y="390" as="targetPoint" />
          </mxGeometry>
        </mxCell>
        <mxCell id="DbdM4YEgdtRYltPSw6OL-11" value="1" style="edgeLabel;html=1;align=center;verticalAlign=middle;resizable=0;points=[];" vertex="1" connectable="0" parent="DbdM4YEgdtRYltPSw6OL-9">
          <mxGeometry x="0.6727" y="3" relative="1" as="geometry">
            <mxPoint x="8" y="-7" as="offset" />
          </mxGeometry>
        </mxCell>
        <mxCell id="DbdM4YEgdtRYltPSw6OL-10" value="" style="endArrow=none;html=1;rounded=0;" edge="1" parent="1" source="DbdM4YEgdtRYltPSw6OL-4" target="DbdM4YEgdtRYltPSw6OL-8">
          <mxGeometry relative="1" as="geometry">
            <mxPoint x="330" y="390" as="sourcePoint" />
            <mxPoint x="490" y="390" as="targetPoint" />
          </mxGeometry>
        </mxCell>
        <mxCell id="DbdM4YEgdtRYltPSw6OL-12" value="n" style="edgeLabel;html=1;align=center;verticalAlign=middle;resizable=0;points=[];" vertex="1" connectable="0" parent="DbdM4YEgdtRYltPSw6OL-10">
          <mxGeometry x="-0.7543" y="-1" relative="1" as="geometry">
            <mxPoint x="11" as="offset" />
          </mxGeometry>
        </mxCell>
        <mxCell id="DbdM4YEgdtRYltPSw6OL-15" value="id" style="ellipse;whiteSpace=wrap;html=1;align=center;fontStyle=4;" vertex="1" parent="1">
          <mxGeometry x="70" y="190" width="100" height="40" as="geometry" />
        </mxCell>
        <mxCell id="DbdM4YEgdtRYltPSw6OL-16" value="" style="endArrow=none;html=1;rounded=0;" edge="1" parent="1" source="DbdM4YEgdtRYltPSw6OL-19" target="DbdM4YEgdtRYltPSw6OL-24">
          <mxGeometry relative="1" as="geometry">
            <mxPoint x="360" y="290" as="sourcePoint" />
            <mxPoint x="520" y="290" as="targetPoint" />
          </mxGeometry>
        </mxCell>
        <mxCell id="DbdM4YEgdtRYltPSw6OL-17" value="" style="endArrow=none;html=1;rounded=0;" edge="1" parent="1" source="DbdM4YEgdtRYltPSw6OL-4" target="DbdM4YEgdtRYltPSw6OL-25">
          <mxGeometry relative="1" as="geometry">
            <mxPoint x="360" y="290" as="sourcePoint" />
            <mxPoint x="520" y="290" as="targetPoint" />
          </mxGeometry>
        </mxCell>
        <mxCell id="DbdM4YEgdtRYltPSw6OL-18" value="" style="endArrow=none;html=1;rounded=0;" edge="1" parent="1" source="DbdM4YEgdtRYltPSw6OL-15" target="DbdM4YEgdtRYltPSw6OL-4">
          <mxGeometry relative="1" as="geometry">
            <mxPoint x="360" y="290" as="sourcePoint" />
            <mxPoint x="520" y="290" as="targetPoint" />
          </mxGeometry>
        </mxCell>
        <mxCell id="DbdM4YEgdtRYltPSw6OL-19" value="condicoes" style="ellipse;shape=doubleEllipse;margin=3;whiteSpace=wrap;html=1;align=center;" vertex="1" parent="1">
          <mxGeometry x="260" y="150" width="100" height="40" as="geometry" />
        </mxCell>
        <mxCell id="DbdM4YEgdtRYltPSw6OL-20" value="" style="endArrow=none;html=1;rounded=0;" edge="1" parent="1" source="DbdM4YEgdtRYltPSw6OL-22" target="DbdM4YEgdtRYltPSw6OL-4">
          <mxGeometry relative="1" as="geometry">
            <mxPoint x="300" y="290" as="sourcePoint" />
            <mxPoint x="460" y="290" as="targetPoint" />
          </mxGeometry>
        </mxCell>
        <mxCell id="DbdM4YEgdtRYltPSw6OL-21" value="" style="endArrow=none;html=1;rounded=0;" edge="1" parent="1" source="DbdM4YEgdtRYltPSw6OL-19" target="DbdM4YEgdtRYltPSw6OL-4">
          <mxGeometry relative="1" as="geometry">
            <mxPoint x="300" y="290" as="sourcePoint" />
            <mxPoint x="460" y="290" as="targetPoint" />
          </mxGeometry>
        </mxCell>
        <mxCell id="DbdM4YEgdtRYltPSw6OL-22" value="cpf" style="ellipse;whiteSpace=wrap;html=1;align=center;" vertex="1" parent="1">
          <mxGeometry x="310" y="200" width="100" height="40" as="geometry" />
        </mxCell>
        <mxCell id="DbdM4YEgdtRYltPSw6OL-23" value="email" style="ellipse;whiteSpace=wrap;html=1;align=center;" vertex="1" parent="1">
          <mxGeometry x="50" y="250" width="100" height="40" as="geometry" />
        </mxCell>
        <mxCell id="DbdM4YEgdtRYltPSw6OL-24" value="nome" style="ellipse;whiteSpace=wrap;html=1;align=center;" vertex="1" parent="1">
          <mxGeometry x="314" y="60" width="100" height="40" as="geometry" />
        </mxCell>
        <mxCell id="DbdM4YEgdtRYltPSw6OL-25" value="name" style="ellipse;whiteSpace=wrap;html=1;align=center;" vertex="1" parent="1">
          <mxGeometry x="120" y="310" width="100" height="40" as="geometry" />
        </mxCell>
        <mxCell id="DbdM4YEgdtRYltPSw6OL-26" value="id" style="ellipse;whiteSpace=wrap;html=1;align=center;fontStyle=4;" vertex="1" parent="1">
          <mxGeometry x="440" y="10" width="100" height="40" as="geometry" />
        </mxCell>
        <mxCell id="DbdM4YEgdtRYltPSw6OL-27" value="_id" style="ellipse;whiteSpace=wrap;html=1;align=center;fontStyle=4;" vertex="1" parent="1">
          <mxGeometry x="200" y="90" width="100" height="40" as="geometry" />
        </mxCell>
        <mxCell id="DbdM4YEgdtRYltPSw6OL-28" value="" style="endArrow=none;html=1;rounded=0;" edge="1" parent="1" source="DbdM4YEgdtRYltPSw6OL-35" target="DbdM4YEgdtRYltPSw6OL-4">
          <mxGeometry relative="1" as="geometry">
            <mxPoint x="250" y="230" as="sourcePoint" />
            <mxPoint x="410" y="230" as="targetPoint" />
          </mxGeometry>
        </mxCell>
        <mxCell id="DbdM4YEgdtRYltPSw6OL-29" value="" style="endArrow=none;html=1;rounded=0;" edge="1" parent="1" source="DbdM4YEgdtRYltPSw6OL-23" target="DbdM4YEgdtRYltPSw6OL-4">
          <mxGeometry relative="1" as="geometry">
            <mxPoint x="250" y="230" as="sourcePoint" />
            <mxPoint x="410" y="230" as="targetPoint" />
          </mxGeometry>
        </mxCell>
        <mxCell id="DbdM4YEgdtRYltPSw6OL-30" value="" style="endArrow=none;html=1;rounded=0;" edge="1" parent="1" source="DbdM4YEgdtRYltPSw6OL-27" target="DbdM4YEgdtRYltPSw6OL-19">
          <mxGeometry relative="1" as="geometry">
            <mxPoint x="250" y="230" as="sourcePoint" />
            <mxPoint x="410" y="230" as="targetPoint" />
          </mxGeometry>
        </mxCell>
        <mxCell id="DbdM4YEgdtRYltPSw6OL-32" value="tipo" style="ellipse;whiteSpace=wrap;html=1;align=center;" vertex="1" parent="1">
          <mxGeometry x="550" y="30" width="100" height="40" as="geometry" />
        </mxCell>
        <mxCell id="DbdM4YEgdtRYltPSw6OL-33" value="nome" style="ellipse;whiteSpace=wrap;html=1;align=center;" vertex="1" parent="1">
          <mxGeometry x="650" y="40" width="100" height="40" as="geometry" />
        </mxCell>
        <mxCell id="DbdM4YEgdtRYltPSw6OL-35" value="senha" style="ellipse;whiteSpace=wrap;html=1;align=center;" vertex="1" parent="1">
          <mxGeometry x="160" y="160" width="100" height="40" as="geometry" />
        </mxCell>
        <mxCell id="DbdM4YEgdtRYltPSw6OL-36" value="email" style="ellipse;whiteSpace=wrap;html=1;align=center;" vertex="1" parent="1">
          <mxGeometry x="390" y="470" width="100" height="40" as="geometry" />
        </mxCell>
        <mxCell id="DbdM4YEgdtRYltPSw6OL-37" value="name" style="ellipse;whiteSpace=wrap;html=1;align=center;" vertex="1" parent="1">
          <mxGeometry x="510" y="480" width="100" height="40" as="geometry" />
        </mxCell>
        <mxCell id="DbdM4YEgdtRYltPSw6OL-38" value="senha" style="ellipse;whiteSpace=wrap;html=1;align=center;" vertex="1" parent="1">
          <mxGeometry x="590" y="400" width="100" height="40" as="geometry" />
        </mxCell>
        <mxCell id="DbdM4YEgdtRYltPSw6OL-39" value="" style="endArrow=none;html=1;rounded=0;" edge="1" parent="1" source="DbdM4YEgdtRYltPSw6OL-1" target="DbdM4YEgdtRYltPSw6OL-36">
          <mxGeometry relative="1" as="geometry">
            <mxPoint x="550" y="431" as="sourcePoint" />
            <mxPoint x="517" y="446" as="targetPoint" />
          </mxGeometry>
        </mxCell>
        <mxCell id="DbdM4YEgdtRYltPSw6OL-40" value="" style="endArrow=none;html=1;rounded=0;" edge="1" parent="1" source="DbdM4YEgdtRYltPSw6OL-1" target="DbdM4YEgdtRYltPSw6OL-38">
          <mxGeometry relative="1" as="geometry">
            <mxPoint x="537" y="330" as="sourcePoint" />
            <mxPoint x="580" y="391" as="targetPoint" />
          </mxGeometry>
        </mxCell>
        <mxCell id="DbdM4YEgdtRYltPSw6OL-41" value="" style="endArrow=none;html=1;rounded=0;" edge="1" parent="1" source="DbdM4YEgdtRYltPSw6OL-1" target="DbdM4YEgdtRYltPSw6OL-37">
          <mxGeometry relative="1" as="geometry">
            <mxPoint x="464" y="404" as="sourcePoint" />
            <mxPoint x="544" y="408" as="targetPoint" />
          </mxGeometry>
        </mxCell>
        <mxCell id="DbdM4YEgdtRYltPSw6OL-43" value="&lt;span style=&quot;border-bottom: 1px dotted&quot;&gt;id_instituicao&lt;/span&gt;" style="ellipse;whiteSpace=wrap;html=1;align=center;" vertex="1" parent="1">
          <mxGeometry x="610" y="320" width="100" height="40" as="geometry" />
        </mxCell>
        <mxCell id="DbdM4YEgdtRYltPSw6OL-44" value="" style="endArrow=none;html=1;rounded=0;" edge="1" parent="1" source="DbdM4YEgdtRYltPSw6OL-3" target="DbdM4YEgdtRYltPSw6OL-33">
          <mxGeometry relative="1" as="geometry">
            <mxPoint x="430" y="300" as="sourcePoint" />
            <mxPoint x="590" y="300" as="targetPoint" />
          </mxGeometry>
        </mxCell>
        <mxCell id="DbdM4YEgdtRYltPSw6OL-45" value="" style="endArrow=none;html=1;rounded=0;" edge="1" parent="1" source="DbdM4YEgdtRYltPSw6OL-1" target="DbdM4YEgdtRYltPSw6OL-43">
          <mxGeometry relative="1" as="geometry">
            <mxPoint x="430" y="300" as="sourcePoint" />
            <mxPoint x="590" y="300" as="targetPoint" />
          </mxGeometry>
        </mxCell>
        <mxCell id="DbdM4YEgdtRYltPSw6OL-46" value="" style="endArrow=none;html=1;rounded=0;" edge="1" parent="1" source="DbdM4YEgdtRYltPSw6OL-3" target="DbdM4YEgdtRYltPSw6OL-26">
          <mxGeometry relative="1" as="geometry">
            <mxPoint x="560" y="163" as="sourcePoint" />
            <mxPoint x="618" y="179" as="targetPoint" />
          </mxGeometry>
        </mxCell>
        <mxCell id="DbdM4YEgdtRYltPSw6OL-47" value="" style="endArrow=none;html=1;rounded=0;" edge="1" parent="1" source="DbdM4YEgdtRYltPSw6OL-3" target="DbdM4YEgdtRYltPSw6OL-32">
          <mxGeometry relative="1" as="geometry">
            <mxPoint x="570" y="173" as="sourcePoint" />
            <mxPoint x="628" y="189" as="targetPoint" />
          </mxGeometry>
        </mxCell>
        <mxCell id="DbdM4YEgdtRYltPSw6OL-48" value="senha" style="ellipse;whiteSpace=wrap;html=1;align=center;" vertex="1" parent="1">
          <mxGeometry x="160" y="160" width="100" height="40" as="geometry" />
        </mxCell>
        <mxCell id="DbdM4YEgdtRYltPSw6OL-49" value="email" style="ellipse;whiteSpace=wrap;html=1;align=center;" vertex="1" parent="1">
          <mxGeometry x="50" y="250" width="100" height="40" as="geometry" />
        </mxCell>
        <mxCell id="DbdM4YEgdtRYltPSw6OL-50" value="" style="endArrow=none;html=1;rounded=0;" edge="1" parent="1" source="DbdM4YEgdtRYltPSw6OL-52" target="DbdM4YEgdtRYltPSw6OL-3">
          <mxGeometry relative="1" as="geometry">
            <mxPoint x="773" y="169" as="sourcePoint" />
            <mxPoint x="816" y="230" as="targetPoint" />
          </mxGeometry>
        </mxCell>
        <mxCell id="DbdM4YEgdtRYltPSw6OL-51" value="" style="endArrow=none;html=1;rounded=0;" edge="1" parent="1" source="DbdM4YEgdtRYltPSw6OL-53" target="DbdM4YEgdtRYltPSw6OL-3">
          <mxGeometry relative="1" as="geometry">
            <mxPoint x="700" y="243" as="sourcePoint" />
            <mxPoint x="780" y="247" as="targetPoint" />
          </mxGeometry>
        </mxCell>
        <mxCell id="DbdM4YEgdtRYltPSw6OL-52" value="senha" style="ellipse;whiteSpace=wrap;html=1;align=center;" vertex="1" parent="1">
          <mxGeometry x="620" y="110" width="100" height="40" as="geometry" />
        </mxCell>
        <mxCell id="DbdM4YEgdtRYltPSw6OL-53" value="email" style="ellipse;whiteSpace=wrap;html=1;align=center;" vertex="1" parent="1">
          <mxGeometry x="570" y="170" width="100" height="40" as="geometry" />
        </mxCell>
      </root>
    </mxGraphModel>
  </diagram>
</mxfile>
